<?xml version="1.0" encoding="utf-8" standalone="no"?>
<!DOCTYPE svg PUBLIC "-//W3C//DTD SVG 1.1//EN"
  "http://www.w3.org/Graphics/SVG/1.1/DTD/svg11.dtd">
<!-- Created with matplotlib (https://matplotlib.org/) -->
<svg height="360pt" version="1.1" viewBox="0 0 720 360" width="720pt" xmlns="http://www.w3.org/2000/svg" xmlns:xlink="http://www.w3.org/1999/xlink">
 <metadata>
  <rdf:RDF xmlns:cc="http://creativecommons.org/ns#" xmlns:dc="http://purl.org/dc/elements/1.1/" xmlns:rdf="http://www.w3.org/1999/02/22-rdf-syntax-ns#">
   <cc:Work>
    <dc:type rdf:resource="http://purl.org/dc/dcmitype/StillImage"/>
    <dc:date>2022-05-18T17:03:43.948587</dc:date>
    <dc:format>image/svg+xml</dc:format>
    <dc:creator>
     <cc:Agent>
      <dc:title>Matplotlib v3.3.4, https://matplotlib.org/</dc:title>
     </cc:Agent>
    </dc:creator>
   </cc:Work>
  </rdf:RDF>
 </metadata>
 <defs>
  <style type="text/css">*{stroke-linecap:butt;stroke-linejoin:round;}</style>
 </defs>
 <g id="figure_1">
  <g id="patch_1">
   <path d="M 0 360 
L 720 360 
L 720 0 
L 0 0 
z
" style="fill:none;"/>
  </g>
  <g id="axes_1">
   <g id="patch_2">
    <path d="M 90 315 
L 648 315 
L 648 43.2 
L 90 43.2 
z
" style="fill:#ffffff;"/>
   </g>
   <g id="matplotlib.axis_1">
    <g id="xtick_1">
     <g id="line2d_1">
      <path clip-path="url(#p241ffa895e)" d="M 100.730769 315 
L 100.730769 43.2 
" style="fill:none;stroke:#b0b0b0;stroke-dasharray:2.96,1.28;stroke-dashoffset:0;stroke-width:0.8;"/>
     </g>
     <g id="line2d_2">
      <defs>
       <path d="M 0 0 
L 0 3.5 
" id="m764349490d" style="stroke:#000000;stroke-width:0.8;"/>
      </defs>
      <g>
       <use style="stroke:#000000;stroke-width:0.8;" x="100.730769" xlink:href="#m764349490d" y="315"/>
      </g>
     </g>
     <g id="text_1">
      <!-- Top 0-5% -->
      <g transform="translate(70.075457 331.118125)scale(0.12 -0.12)">
       <defs>
        <path d="M 0.484375 72.90625 
L 67.671875 72.90625 
L 67.671875 58.6875 
L 43.5 58.6875 
L 43.5 0 
L 24.703125 0 
L 24.703125 58.6875 
L 0.484375 58.6875 
z
" id="DejaVuSans-Bold-84"/>
        <path d="M 34.421875 43.5 
Q 28.609375 43.5 25.5625 39.328125 
Q 22.515625 35.15625 22.515625 27.296875 
Q 22.515625 19.4375 25.5625 15.25 
Q 28.609375 11.078125 34.421875 11.078125 
Q 40.140625 11.078125 43.15625 15.25 
Q 46.1875 19.4375 46.1875 27.296875 
Q 46.1875 35.15625 43.15625 39.328125 
Q 40.140625 43.5 34.421875 43.5 
z
M 34.421875 56 
Q 48.53125 56 56.46875 48.375 
Q 64.40625 40.765625 64.40625 27.296875 
Q 64.40625 13.8125 56.46875 6.1875 
Q 48.53125 -1.421875 34.421875 -1.421875 
Q 20.265625 -1.421875 12.28125 6.1875 
Q 4.296875 13.8125 4.296875 27.296875 
Q 4.296875 40.765625 12.28125 48.375 
Q 20.265625 56 34.421875 56 
z
" id="DejaVuSans-Bold-111"/>
        <path d="M 25.875 7.90625 
L 25.875 -20.796875 
L 8.40625 -20.796875 
L 8.40625 54.6875 
L 25.875 54.6875 
L 25.875 46.6875 
Q 29.5 51.46875 33.890625 53.734375 
Q 38.28125 56 44 56 
Q 54.109375 56 60.59375 47.96875 
Q 67.09375 39.9375 67.09375 27.296875 
Q 67.09375 14.65625 60.59375 6.609375 
Q 54.109375 -1.421875 44 -1.421875 
Q 38.28125 -1.421875 33.890625 0.84375 
Q 29.5 3.125 25.875 7.90625 
z
M 37.5 43.3125 
Q 31.890625 43.3125 28.875 39.1875 
Q 25.875 35.0625 25.875 27.296875 
Q 25.875 19.53125 28.875 15.40625 
Q 31.890625 11.28125 37.5 11.28125 
Q 43.109375 11.28125 46.0625 15.375 
Q 49.03125 19.484375 49.03125 27.296875 
Q 49.03125 35.109375 46.0625 39.203125 
Q 43.109375 43.3125 37.5 43.3125 
z
" id="DejaVuSans-Bold-112"/>
        <path id="DejaVuSans-Bold-32"/>
        <path d="M 46 36.53125 
Q 46 50.203125 43.4375 55.78125 
Q 40.875 61.375 34.8125 61.375 
Q 28.765625 61.375 26.171875 55.78125 
Q 23.578125 50.203125 23.578125 36.53125 
Q 23.578125 22.703125 26.171875 17.03125 
Q 28.765625 11.375 34.8125 11.375 
Q 40.828125 11.375 43.40625 17.03125 
Q 46 22.703125 46 36.53125 
z
M 64.796875 36.375 
Q 64.796875 18.265625 56.984375 8.421875 
Q 49.171875 -1.421875 34.8125 -1.421875 
Q 20.40625 -1.421875 12.59375 8.421875 
Q 4.78125 18.265625 4.78125 36.375 
Q 4.78125 54.546875 12.59375 64.375 
Q 20.40625 74.21875 34.8125 74.21875 
Q 49.171875 74.21875 56.984375 64.375 
Q 64.796875 54.546875 64.796875 36.375 
z
" id="DejaVuSans-Bold-48"/>
        <path d="M 5.421875 35.890625 
L 36.078125 35.890625 
L 36.078125 21.6875 
L 5.421875 21.6875 
z
" id="DejaVuSans-Bold-45"/>
        <path d="M 10.59375 72.90625 
L 57.328125 72.90625 
L 57.328125 59.078125 
L 25.59375 59.078125 
L 25.59375 47.796875 
Q 27.734375 48.390625 29.90625 48.703125 
Q 32.078125 49.03125 34.421875 49.03125 
Q 47.75 49.03125 55.171875 42.359375 
Q 62.59375 35.6875 62.59375 23.78125 
Q 62.59375 11.96875 54.515625 5.265625 
Q 46.4375 -1.421875 32.078125 -1.421875 
Q 25.875 -1.421875 19.796875 -0.21875 
Q 13.71875 0.984375 7.71875 3.421875 
L 7.71875 18.21875 
Q 13.671875 14.796875 19.015625 13.078125 
Q 24.359375 11.375 29.109375 11.375 
Q 35.9375 11.375 39.859375 14.71875 
Q 43.796875 18.0625 43.796875 23.78125 
Q 43.796875 29.546875 39.859375 32.859375 
Q 35.9375 36.1875 29.109375 36.1875 
Q 25.046875 36.1875 20.453125 35.125 
Q 15.875 34.078125 10.59375 31.890625 
z
" id="DejaVuSans-Bold-53"/>
        <path d="M 77.484375 30.078125 
Q 74.03125 30.078125 72.125 27.078125 
Q 70.21875 24.078125 70.21875 18.5 
Q 70.21875 12.890625 72.09375 9.890625 
Q 73.96875 6.890625 77.484375 6.890625 
Q 81 6.890625 82.859375 9.890625 
Q 84.71875 12.890625 84.71875 18.5 
Q 84.71875 24.078125 82.828125 27.078125 
Q 80.953125 30.078125 77.484375 30.078125 
z
M 77.484375 38.28125 
Q 86.578125 38.28125 91.796875 33 
Q 97.015625 27.734375 97.015625 18.5 
Q 97.015625 9.28125 91.796875 3.921875 
Q 86.578125 -1.421875 77.484375 -1.421875 
Q 68.40625 -1.421875 63.15625 3.921875 
Q 57.90625 9.28125 57.90625 18.5 
Q 57.90625 27.6875 63.15625 32.984375 
Q 68.40625 38.28125 77.484375 38.28125 
z
M 32.71875 -1.421875 
L 21.921875 -1.421875 
L 67.484375 74.21875 
L 78.328125 74.21875 
z
M 22.703125 74.21875 
Q 31.78125 74.21875 36.984375 68.921875 
Q 42.1875 63.625 42.1875 54.390625 
Q 42.1875 45.171875 36.984375 39.84375 
Q 31.78125 34.515625 22.703125 34.515625 
Q 13.625 34.515625 8.421875 39.84375 
Q 3.21875 45.171875 3.21875 54.390625 
Q 3.21875 63.625 8.421875 68.921875 
Q 13.625 74.21875 22.703125 74.21875 
z
M 22.703125 66.015625 
Q 19.1875 66.015625 17.28125 62.984375 
Q 15.375 59.96875 15.375 54.390625 
Q 15.375 48.78125 17.28125 45.71875 
Q 19.1875 42.671875 22.703125 42.671875 
Q 26.21875 42.671875 28.09375 45.71875 
Q 29.984375 48.78125 29.984375 54.390625 
Q 29.984375 59.96875 28.078125 62.984375 
Q 26.171875 66.015625 22.703125 66.015625 
z
" id="DejaVuSans-Bold-37"/>
       </defs>
       <use xlink:href="#DejaVuSans-Bold-84"/>
       <use x="54.962891" xlink:href="#DejaVuSans-Bold-111"/>
       <use x="123.664062" xlink:href="#DejaVuSans-Bold-112"/>
       <use x="195.246094" xlink:href="#DejaVuSans-Bold-32"/>
       <use x="230.060547" xlink:href="#DejaVuSans-Bold-48"/>
       <use x="299.640625" xlink:href="#DejaVuSans-Bold-45"/>
       <use x="341.144531" xlink:href="#DejaVuSans-Bold-53"/>
       <use x="410.724609" xlink:href="#DejaVuSans-Bold-37"/>
      </g>
     </g>
    </g>
    <g id="xtick_2">
     <g id="line2d_3">
      <path clip-path="url(#p241ffa895e)" d="M 208.038462 315 
L 208.038462 43.2 
" style="fill:none;stroke:#b0b0b0;stroke-dasharray:2.96,1.28;stroke-dashoffset:0;stroke-width:0.8;"/>
     </g>
     <g id="line2d_4">
      <g>
       <use style="stroke:#000000;stroke-width:0.8;" x="208.038462" xlink:href="#m764349490d" y="315"/>
      </g>
     </g>
     <g id="text_2">
      <!-- Top 5-10% -->
      <g transform="translate(173.208462 331.118125)scale(0.12 -0.12)">
       <defs>
        <path d="M 11.71875 12.984375 
L 28.328125 12.984375 
L 28.328125 60.109375 
L 11.28125 56.59375 
L 11.28125 69.390625 
L 28.21875 72.90625 
L 46.09375 72.90625 
L 46.09375 12.984375 
L 62.703125 12.984375 
L 62.703125 0 
L 11.71875 0 
z
" id="DejaVuSans-Bold-49"/>
       </defs>
       <use xlink:href="#DejaVuSans-Bold-84"/>
       <use x="54.962891" xlink:href="#DejaVuSans-Bold-111"/>
       <use x="123.664062" xlink:href="#DejaVuSans-Bold-112"/>
       <use x="195.246094" xlink:href="#DejaVuSans-Bold-32"/>
       <use x="230.060547" xlink:href="#DejaVuSans-Bold-53"/>
       <use x="299.640625" xlink:href="#DejaVuSans-Bold-45"/>
       <use x="341.144531" xlink:href="#DejaVuSans-Bold-49"/>
       <use x="410.724609" xlink:href="#DejaVuSans-Bold-48"/>
       <use x="480.304688" xlink:href="#DejaVuSans-Bold-37"/>
      </g>
     </g>
    </g>
    <g id="xtick_3">
     <g id="line2d_5">
      <path clip-path="url(#p241ffa895e)" d="M 315.346154 315 
L 315.346154 43.2 
" style="fill:none;stroke:#b0b0b0;stroke-dasharray:2.96,1.28;stroke-dashoffset:0;stroke-width:0.8;"/>
     </g>
     <g id="line2d_6">
      <g>
       <use style="stroke:#000000;stroke-width:0.8;" x="315.346154" xlink:href="#m764349490d" y="315"/>
      </g>
     </g>
     <g id="text_3">
      <!-- Top 10-20% -->
      <g transform="translate(276.341466 331.118125)scale(0.12 -0.12)">
       <defs>
        <path d="M 28.8125 13.8125 
L 60.890625 13.8125 
L 60.890625 0 
L 7.90625 0 
L 7.90625 13.8125 
L 34.515625 37.3125 
Q 38.09375 40.53125 39.796875 43.609375 
Q 41.5 46.6875 41.5 50 
Q 41.5 55.125 38.0625 58.25 
Q 34.625 61.375 28.90625 61.375 
Q 24.515625 61.375 19.28125 59.5 
Q 14.0625 57.625 8.109375 53.90625 
L 8.109375 69.921875 
Q 14.453125 72.015625 20.65625 73.109375 
Q 26.859375 74.21875 32.8125 74.21875 
Q 45.90625 74.21875 53.15625 68.453125 
Q 60.40625 62.703125 60.40625 52.390625 
Q 60.40625 46.4375 57.328125 41.28125 
Q 54.25 36.140625 44.390625 27.484375 
z
" id="DejaVuSans-Bold-50"/>
       </defs>
       <use xlink:href="#DejaVuSans-Bold-84"/>
       <use x="54.962891" xlink:href="#DejaVuSans-Bold-111"/>
       <use x="123.664062" xlink:href="#DejaVuSans-Bold-112"/>
       <use x="195.246094" xlink:href="#DejaVuSans-Bold-32"/>
       <use x="230.060547" xlink:href="#DejaVuSans-Bold-49"/>
       <use x="299.640625" xlink:href="#DejaVuSans-Bold-48"/>
       <use x="369.220703" xlink:href="#DejaVuSans-Bold-45"/>
       <use x="410.724609" xlink:href="#DejaVuSans-Bold-50"/>
       <use x="480.304688" xlink:href="#DejaVuSans-Bold-48"/>
       <use x="549.884766" xlink:href="#DejaVuSans-Bold-37"/>
      </g>
     </g>
    </g>
    <g id="xtick_4">
     <g id="line2d_7">
      <path clip-path="url(#p241ffa895e)" d="M 422.653846 315 
L 422.653846 43.2 
" style="fill:none;stroke:#b0b0b0;stroke-dasharray:2.96,1.28;stroke-dashoffset:0;stroke-width:0.8;"/>
     </g>
     <g id="line2d_8">
      <g>
       <use style="stroke:#000000;stroke-width:0.8;" x="422.653846" xlink:href="#m764349490d" y="315"/>
      </g>
     </g>
     <g id="text_4">
      <!-- Top 20-50% -->
      <g transform="translate(383.649159 331.118125)scale(0.12 -0.12)">
       <use xlink:href="#DejaVuSans-Bold-84"/>
       <use x="54.962891" xlink:href="#DejaVuSans-Bold-111"/>
       <use x="123.664062" xlink:href="#DejaVuSans-Bold-112"/>
       <use x="195.246094" xlink:href="#DejaVuSans-Bold-32"/>
       <use x="230.060547" xlink:href="#DejaVuSans-Bold-50"/>
       <use x="299.640625" xlink:href="#DejaVuSans-Bold-48"/>
       <use x="369.220703" xlink:href="#DejaVuSans-Bold-45"/>
       <use x="410.724609" xlink:href="#DejaVuSans-Bold-53"/>
       <use x="480.304688" xlink:href="#DejaVuSans-Bold-48"/>
       <use x="549.884766" xlink:href="#DejaVuSans-Bold-37"/>
      </g>
     </g>
    </g>
    <g id="xtick_5">
     <g id="line2d_9">
      <path clip-path="url(#p241ffa895e)" d="M 529.961538 315 
L 529.961538 43.2 
" style="fill:none;stroke:#b0b0b0;stroke-dasharray:2.96,1.28;stroke-dashoffset:0;stroke-width:0.8;"/>
     </g>
     <g id="line2d_10">
      <g>
       <use style="stroke:#000000;stroke-width:0.8;" x="529.961538" xlink:href="#m764349490d" y="315"/>
      </g>
     </g>
     <g id="text_5">
      <!-- Top 50-70% -->
      <g transform="translate(490.956851 331.118125)scale(0.12 -0.12)">
       <defs>
        <path d="M 6.6875 72.90625 
L 61.625 72.90625 
L 61.625 62.3125 
L 33.203125 0 
L 14.890625 0 
L 41.796875 59.078125 
L 6.6875 59.078125 
z
" id="DejaVuSans-Bold-55"/>
       </defs>
       <use xlink:href="#DejaVuSans-Bold-84"/>
       <use x="54.962891" xlink:href="#DejaVuSans-Bold-111"/>
       <use x="123.664062" xlink:href="#DejaVuSans-Bold-112"/>
       <use x="195.246094" xlink:href="#DejaVuSans-Bold-32"/>
       <use x="230.060547" xlink:href="#DejaVuSans-Bold-53"/>
       <use x="299.640625" xlink:href="#DejaVuSans-Bold-48"/>
       <use x="369.220703" xlink:href="#DejaVuSans-Bold-45"/>
       <use x="410.724609" xlink:href="#DejaVuSans-Bold-55"/>
       <use x="480.304688" xlink:href="#DejaVuSans-Bold-48"/>
       <use x="549.884766" xlink:href="#DejaVuSans-Bold-37"/>
      </g>
     </g>
    </g>
    <g id="xtick_6">
     <g id="line2d_11">
      <path clip-path="url(#p241ffa895e)" d="M 637.269231 315 
L 637.269231 43.2 
" style="fill:none;stroke:#b0b0b0;stroke-dasharray:2.96,1.28;stroke-dashoffset:0;stroke-width:0.8;"/>
     </g>
     <g id="line2d_12">
      <g>
       <use style="stroke:#000000;stroke-width:0.8;" x="637.269231" xlink:href="#m764349490d" y="315"/>
      </g>
     </g>
     <g id="text_6">
      <!--  Top 70-100% -->
      <g transform="translate(592.001106 331.118125)scale(0.12 -0.12)">
       <use xlink:href="#DejaVuSans-Bold-32"/>
       <use x="34.814453" xlink:href="#DejaVuSans-Bold-84"/>
       <use x="89.777344" xlink:href="#DejaVuSans-Bold-111"/>
       <use x="158.478516" xlink:href="#DejaVuSans-Bold-112"/>
       <use x="230.060547" xlink:href="#DejaVuSans-Bold-32"/>
       <use x="264.875" xlink:href="#DejaVuSans-Bold-55"/>
       <use x="334.455078" xlink:href="#DejaVuSans-Bold-48"/>
       <use x="404.035156" xlink:href="#DejaVuSans-Bold-45"/>
       <use x="445.539062" xlink:href="#DejaVuSans-Bold-49"/>
       <use x="515.119141" xlink:href="#DejaVuSans-Bold-48"/>
       <use x="584.699219" xlink:href="#DejaVuSans-Bold-48"/>
       <use x="654.279297" xlink:href="#DejaVuSans-Bold-37"/>
      </g>
     </g>
    </g>
    <g id="text_7">
     <!-- Performance Percentile -->
     <g transform="translate(282.571328 347.491719)scale(0.13 -0.13)">
      <defs>
       <path d="M 9.1875 72.90625 
L 40.375 72.90625 
Q 54.296875 72.90625 61.734375 66.71875 
Q 69.1875 60.546875 69.1875 49.125 
Q 69.1875 37.640625 61.734375 31.46875 
Q 54.296875 25.296875 40.375 25.296875 
L 27.984375 25.296875 
L 27.984375 0 
L 9.1875 0 
z
M 27.984375 59.28125 
L 27.984375 38.921875 
L 38.375 38.921875 
Q 43.84375 38.921875 46.828125 41.578125 
Q 49.8125 44.234375 49.8125 49.125 
Q 49.8125 54 46.828125 56.640625 
Q 43.84375 59.28125 38.375 59.28125 
z
" id="DejaVuSans-Bold-80"/>
       <path d="M 62.984375 27.484375 
L 62.984375 22.515625 
L 22.125 22.515625 
Q 22.75 16.359375 26.5625 13.28125 
Q 30.375 10.203125 37.203125 10.203125 
Q 42.71875 10.203125 48.5 11.84375 
Q 54.296875 13.484375 60.40625 16.796875 
L 60.40625 3.328125 
Q 54.203125 0.984375 48 -0.21875 
Q 41.796875 -1.421875 35.59375 -1.421875 
Q 20.75 -1.421875 12.515625 6.125 
Q 4.296875 13.671875 4.296875 27.296875 
Q 4.296875 40.671875 12.375 48.328125 
Q 20.453125 56 34.625 56 
Q 47.515625 56 55.25 48.234375 
Q 62.984375 40.484375 62.984375 27.484375 
z
M 45.015625 33.296875 
Q 45.015625 38.28125 42.109375 41.328125 
Q 39.203125 44.390625 34.515625 44.390625 
Q 29.4375 44.390625 26.265625 41.53125 
Q 23.09375 38.671875 22.3125 33.296875 
z
" id="DejaVuSans-Bold-101"/>
       <path d="M 49.03125 39.796875 
Q 46.734375 40.875 44.453125 41.375 
Q 42.1875 41.890625 39.890625 41.890625 
Q 33.15625 41.890625 29.515625 37.5625 
Q 25.875 33.25 25.875 25.203125 
L 25.875 0 
L 8.40625 0 
L 8.40625 54.6875 
L 25.875 54.6875 
L 25.875 45.703125 
Q 29.25 51.078125 33.609375 53.53125 
Q 37.984375 56 44.09375 56 
Q 44.96875 56 45.984375 55.921875 
Q 47.015625 55.859375 48.96875 55.609375 
z
" id="DejaVuSans-Bold-114"/>
       <path d="M 44.390625 75.984375 
L 44.390625 64.5 
L 34.71875 64.5 
Q 31 64.5 29.53125 63.15625 
Q 28.078125 61.8125 28.078125 58.5 
L 28.078125 54.6875 
L 43.015625 54.6875 
L 43.015625 42.1875 
L 28.078125 42.1875 
L 28.078125 0 
L 10.59375 0 
L 10.59375 42.1875 
L 1.90625 42.1875 
L 1.90625 54.6875 
L 10.59375 54.6875 
L 10.59375 58.5 
Q 10.59375 67.4375 15.578125 71.703125 
Q 20.5625 75.984375 31 75.984375 
z
" id="DejaVuSans-Bold-102"/>
       <path d="M 59.078125 45.609375 
Q 62.40625 50.6875 66.96875 53.34375 
Q 71.53125 56 77 56 
Q 86.421875 56 91.359375 50.1875 
Q 96.296875 44.390625 96.296875 33.296875 
L 96.296875 0 
L 78.71875 0 
L 78.71875 28.515625 
Q 78.765625 29.15625 78.78125 29.828125 
Q 78.8125 30.515625 78.8125 31.78125 
Q 78.8125 37.59375 77.09375 40.203125 
Q 75.390625 42.828125 71.578125 42.828125 
Q 66.609375 42.828125 63.890625 38.71875 
Q 61.1875 34.625 61.078125 26.859375 
L 61.078125 0 
L 43.5 0 
L 43.5 28.515625 
Q 43.5 37.59375 41.9375 40.203125 
Q 40.375 42.828125 36.375 42.828125 
Q 31.34375 42.828125 28.609375 38.703125 
Q 25.875 34.578125 25.875 26.90625 
L 25.875 0 
L 8.296875 0 
L 8.296875 54.6875 
L 25.875 54.6875 
L 25.875 46.6875 
Q 29.109375 51.3125 33.28125 53.65625 
Q 37.453125 56 42.484375 56 
Q 48.140625 56 52.484375 53.265625 
Q 56.84375 50.53125 59.078125 45.609375 
z
" id="DejaVuSans-Bold-109"/>
       <path d="M 32.90625 24.609375 
Q 27.4375 24.609375 24.671875 22.75 
Q 21.921875 20.90625 21.921875 17.28125 
Q 21.921875 13.96875 24.140625 12.078125 
Q 26.375 10.203125 30.328125 10.203125 
Q 35.25 10.203125 38.625 13.734375 
Q 42 17.28125 42 22.609375 
L 42 24.609375 
z
M 59.625 31.203125 
L 59.625 0 
L 42 0 
L 42 8.109375 
Q 38.484375 3.125 34.078125 0.84375 
Q 29.6875 -1.421875 23.390625 -1.421875 
Q 14.890625 -1.421875 9.59375 3.53125 
Q 4.296875 8.5 4.296875 16.40625 
Q 4.296875 26.03125 10.90625 30.515625 
Q 17.53125 35.015625 31.6875 35.015625 
L 42 35.015625 
L 42 36.375 
Q 42 40.53125 38.71875 42.453125 
Q 35.453125 44.390625 28.515625 44.390625 
Q 22.90625 44.390625 18.0625 43.265625 
Q 13.234375 42.140625 9.078125 39.890625 
L 9.078125 53.21875 
Q 14.703125 54.59375 20.359375 55.296875 
Q 26.03125 56 31.6875 56 
Q 46.484375 56 53.046875 50.171875 
Q 59.625 44.34375 59.625 31.203125 
z
" id="DejaVuSans-Bold-97"/>
       <path d="M 63.375 33.296875 
L 63.375 0 
L 45.796875 0 
L 45.796875 5.421875 
L 45.796875 25.484375 
Q 45.796875 32.5625 45.484375 35.25 
Q 45.171875 37.9375 44.390625 39.203125 
Q 43.359375 40.921875 41.59375 41.875 
Q 39.84375 42.828125 37.59375 42.828125 
Q 32.125 42.828125 29 38.59375 
Q 25.875 34.375 25.875 26.90625 
L 25.875 0 
L 8.40625 0 
L 8.40625 54.6875 
L 25.875 54.6875 
L 25.875 46.6875 
Q 29.828125 51.46875 34.265625 53.734375 
Q 38.71875 56 44.09375 56 
Q 53.5625 56 58.46875 50.1875 
Q 63.375 44.390625 63.375 33.296875 
z
" id="DejaVuSans-Bold-110"/>
       <path d="M 52.59375 52.984375 
L 52.59375 38.71875 
Q 49.03125 41.15625 45.4375 42.328125 
Q 41.84375 43.5 37.984375 43.5 
Q 30.671875 43.5 26.59375 39.234375 
Q 22.515625 34.96875 22.515625 27.296875 
Q 22.515625 19.625 26.59375 15.34375 
Q 30.671875 11.078125 37.984375 11.078125 
Q 42.09375 11.078125 45.78125 12.296875 
Q 49.46875 13.53125 52.59375 15.921875 
L 52.59375 1.609375 
Q 48.484375 0.09375 44.265625 -0.65625 
Q 40.046875 -1.421875 35.796875 -1.421875 
Q 21 -1.421875 12.640625 6.171875 
Q 4.296875 13.765625 4.296875 27.296875 
Q 4.296875 40.828125 12.640625 48.40625 
Q 21 56 35.796875 56 
Q 40.09375 56 44.265625 55.25 
Q 48.4375 54.5 52.59375 52.984375 
z
" id="DejaVuSans-Bold-99"/>
       <path d="M 27.484375 70.21875 
L 27.484375 54.6875 
L 45.515625 54.6875 
L 45.515625 42.1875 
L 27.484375 42.1875 
L 27.484375 19 
Q 27.484375 15.1875 29 13.84375 
Q 30.515625 12.5 35.015625 12.5 
L 44 12.5 
L 44 0 
L 29 0 
Q 18.65625 0 14.328125 4.3125 
Q 10.015625 8.640625 10.015625 19 
L 10.015625 42.1875 
L 1.3125 42.1875 
L 1.3125 54.6875 
L 10.015625 54.6875 
L 10.015625 70.21875 
z
" id="DejaVuSans-Bold-116"/>
       <path d="M 8.40625 54.6875 
L 25.875 54.6875 
L 25.875 0 
L 8.40625 0 
z
M 8.40625 75.984375 
L 25.875 75.984375 
L 25.875 61.71875 
L 8.40625 61.71875 
z
" id="DejaVuSans-Bold-105"/>
       <path d="M 8.40625 75.984375 
L 25.875 75.984375 
L 25.875 0 
L 8.40625 0 
z
" id="DejaVuSans-Bold-108"/>
      </defs>
      <use xlink:href="#DejaVuSans-Bold-80"/>
      <use x="73.291016" xlink:href="#DejaVuSans-Bold-101"/>
      <use x="141.113281" xlink:href="#DejaVuSans-Bold-114"/>
      <use x="190.429688" xlink:href="#DejaVuSans-Bold-102"/>
      <use x="233.935547" xlink:href="#DejaVuSans-Bold-111"/>
      <use x="302.636719" xlink:href="#DejaVuSans-Bold-114"/>
      <use x="351.953125" xlink:href="#DejaVuSans-Bold-109"/>
      <use x="456.152344" xlink:href="#DejaVuSans-Bold-97"/>
      <use x="523.632812" xlink:href="#DejaVuSans-Bold-110"/>
      <use x="594.824219" xlink:href="#DejaVuSans-Bold-99"/>
      <use x="654.101562" xlink:href="#DejaVuSans-Bold-101"/>
      <use x="721.923828" xlink:href="#DejaVuSans-Bold-32"/>
      <use x="756.738281" xlink:href="#DejaVuSans-Bold-80"/>
      <use x="830.029297" xlink:href="#DejaVuSans-Bold-101"/>
      <use x="897.851562" xlink:href="#DejaVuSans-Bold-114"/>
      <use x="947.167969" xlink:href="#DejaVuSans-Bold-99"/>
      <use x="1006.445312" xlink:href="#DejaVuSans-Bold-101"/>
      <use x="1074.267578" xlink:href="#DejaVuSans-Bold-110"/>
      <use x="1145.458984" xlink:href="#DejaVuSans-Bold-116"/>
      <use x="1193.261719" xlink:href="#DejaVuSans-Bold-105"/>
      <use x="1227.539062" xlink:href="#DejaVuSans-Bold-108"/>
      <use x="1261.816406" xlink:href="#DejaVuSans-Bold-101"/>
     </g>
    </g>
   </g>
   <g id="matplotlib.axis_2">
    <g id="ytick_1">
     <g id="line2d_13">
      <path clip-path="url(#p241ffa895e)" d="M 90 305.627586 
L 648 305.627586 
" style="fill:none;stroke:#b0b0b0;stroke-dasharray:2.96,1.28;stroke-dashoffset:0;stroke-width:0.8;"/>
     </g>
     <g id="line2d_14">
      <defs>
       <path d="M 0 0 
L -3.5 0 
" id="m2bd0b9b5f9" style="stroke:#000000;stroke-width:0.8;"/>
      </defs>
      <g>
       <use style="stroke:#000000;stroke-width:0.8;" x="90" xlink:href="#m2bd0b9b5f9" y="305.627586"/>
      </g>
     </g>
     <g id="text_8">
      <!-- 2 -->
      <g transform="translate(74.650625 310.186649)scale(0.12 -0.12)">
       <use xlink:href="#DejaVuSans-Bold-50"/>
      </g>
     </g>
    </g>
    <g id="ytick_2">
     <g id="line2d_15">
      <path clip-path="url(#p241ffa895e)" d="M 90 268.137931 
L 648 268.137931 
" style="fill:none;stroke:#b0b0b0;stroke-dasharray:2.96,1.28;stroke-dashoffset:0;stroke-width:0.8;"/>
     </g>
     <g id="line2d_16">
      <g>
       <use style="stroke:#000000;stroke-width:0.8;" x="90" xlink:href="#m2bd0b9b5f9" y="268.137931"/>
      </g>
     </g>
     <g id="text_9">
      <!-- 4 -->
      <g transform="translate(74.650625 272.696994)scale(0.12 -0.12)">
       <defs>
        <path d="M 36.8125 57.421875 
L 16.21875 26.90625 
L 36.8125 26.90625 
z
M 33.6875 72.90625 
L 54.59375 72.90625 
L 54.59375 26.90625 
L 64.984375 26.90625 
L 64.984375 13.28125 
L 54.59375 13.28125 
L 54.59375 0 
L 36.8125 0 
L 36.8125 13.28125 
L 4.5 13.28125 
L 4.5 29.390625 
z
" id="DejaVuSans-Bold-52"/>
       </defs>
       <use xlink:href="#DejaVuSans-Bold-52"/>
      </g>
     </g>
    </g>
    <g id="ytick_3">
     <g id="line2d_17">
      <path clip-path="url(#p241ffa895e)" d="M 90 230.648276 
L 648 230.648276 
" style="fill:none;stroke:#b0b0b0;stroke-dasharray:2.96,1.28;stroke-dashoffset:0;stroke-width:0.8;"/>
     </g>
     <g id="line2d_18">
      <g>
       <use style="stroke:#000000;stroke-width:0.8;" x="90" xlink:href="#m2bd0b9b5f9" y="230.648276"/>
      </g>
     </g>
     <g id="text_10">
      <!-- 6 -->
      <g transform="translate(74.650625 235.207338)scale(0.12 -0.12)">
       <defs>
        <path d="M 36.1875 35.984375 
Q 31.25 35.984375 28.78125 32.78125 
Q 26.3125 29.59375 26.3125 23.1875 
Q 26.3125 16.796875 28.78125 13.59375 
Q 31.25 10.40625 36.1875 10.40625 
Q 41.15625 10.40625 43.625 13.59375 
Q 46.09375 16.796875 46.09375 23.1875 
Q 46.09375 29.59375 43.625 32.78125 
Q 41.15625 35.984375 36.1875 35.984375 
z
M 59.421875 71 
L 59.421875 57.515625 
Q 54.78125 59.71875 50.671875 60.765625 
Q 46.578125 61.8125 42.671875 61.8125 
Q 34.28125 61.8125 29.59375 57.140625 
Q 24.90625 52.484375 24.125 43.3125 
Q 27.34375 45.703125 31.09375 46.890625 
Q 34.859375 48.09375 39.3125 48.09375 
Q 50.484375 48.09375 57.34375 41.546875 
Q 64.203125 35.015625 64.203125 24.421875 
Q 64.203125 12.703125 56.53125 5.640625 
Q 48.875 -1.421875 35.984375 -1.421875 
Q 21.78125 -1.421875 13.984375 8.171875 
Q 6.203125 17.78125 6.203125 35.40625 
Q 6.203125 53.46875 15.3125 63.796875 
Q 24.421875 74.125 40.28125 74.125 
Q 45.3125 74.125 50.046875 73.34375 
Q 54.78125 72.5625 59.421875 71 
z
" id="DejaVuSans-Bold-54"/>
       </defs>
       <use xlink:href="#DejaVuSans-Bold-54"/>
      </g>
     </g>
    </g>
    <g id="ytick_4">
     <g id="line2d_19">
      <path clip-path="url(#p241ffa895e)" d="M 90 193.158621 
L 648 193.158621 
" style="fill:none;stroke:#b0b0b0;stroke-dasharray:2.96,1.28;stroke-dashoffset:0;stroke-width:0.8;"/>
     </g>
     <g id="line2d_20">
      <g>
       <use style="stroke:#000000;stroke-width:0.8;" x="90" xlink:href="#m2bd0b9b5f9" y="193.158621"/>
      </g>
     </g>
     <g id="text_11">
      <!-- 8 -->
      <g transform="translate(74.650625 197.717683)scale(0.12 -0.12)">
       <defs>
        <path d="M 34.8125 32.625 
Q 29.546875 32.625 26.703125 29.734375 
Q 23.875 26.859375 23.875 21.484375 
Q 23.875 16.109375 26.703125 13.25 
Q 29.546875 10.40625 34.8125 10.40625 
Q 40.046875 10.40625 42.828125 13.25 
Q 45.609375 16.109375 45.609375 21.484375 
Q 45.609375 26.90625 42.828125 29.765625 
Q 40.046875 32.625 34.8125 32.625 
z
M 21.09375 38.8125 
Q 14.453125 40.828125 11.078125 44.96875 
Q 7.71875 49.125 7.71875 55.328125 
Q 7.71875 64.546875 14.59375 69.375 
Q 21.484375 74.21875 34.8125 74.21875 
Q 48.046875 74.21875 54.921875 69.40625 
Q 61.8125 64.59375 61.8125 55.328125 
Q 61.8125 49.125 58.421875 44.96875 
Q 55.03125 40.828125 48.390625 38.8125 
Q 55.8125 36.765625 59.59375 32.15625 
Q 63.375 27.546875 63.375 20.515625 
Q 63.375 9.671875 56.171875 4.125 
Q 48.96875 -1.421875 34.8125 -1.421875 
Q 20.609375 -1.421875 13.359375 4.125 
Q 6.109375 9.671875 6.109375 20.515625 
Q 6.109375 27.546875 9.890625 32.15625 
Q 13.671875 36.765625 21.09375 38.8125 
z
M 25.484375 53.421875 
Q 25.484375 49.078125 27.90625 46.734375 
Q 30.328125 44.390625 34.8125 44.390625 
Q 39.203125 44.390625 41.59375 46.734375 
Q 44 49.078125 44 53.421875 
Q 44 57.765625 41.59375 60.078125 
Q 39.203125 62.40625 34.8125 62.40625 
Q 30.328125 62.40625 27.90625 60.0625 
Q 25.484375 57.71875 25.484375 53.421875 
z
" id="DejaVuSans-Bold-56"/>
       </defs>
       <use xlink:href="#DejaVuSans-Bold-56"/>
      </g>
     </g>
    </g>
    <g id="ytick_5">
     <g id="line2d_21">
      <path clip-path="url(#p241ffa895e)" d="M 90 155.668966 
L 648 155.668966 
" style="fill:none;stroke:#b0b0b0;stroke-dasharray:2.96,1.28;stroke-dashoffset:0;stroke-width:0.8;"/>
     </g>
     <g id="line2d_22">
      <g>
       <use style="stroke:#000000;stroke-width:0.8;" x="90" xlink:href="#m2bd0b9b5f9" y="155.668966"/>
      </g>
     </g>
     <g id="text_12">
      <!-- 10 -->
      <g transform="translate(66.30125 160.228028)scale(0.12 -0.12)">
       <use xlink:href="#DejaVuSans-Bold-49"/>
       <use x="69.580078" xlink:href="#DejaVuSans-Bold-48"/>
      </g>
     </g>
    </g>
    <g id="ytick_6">
     <g id="line2d_23">
      <path clip-path="url(#p241ffa895e)" d="M 90 118.17931 
L 648 118.17931 
" style="fill:none;stroke:#b0b0b0;stroke-dasharray:2.96,1.28;stroke-dashoffset:0;stroke-width:0.8;"/>
     </g>
     <g id="line2d_24">
      <g>
       <use style="stroke:#000000;stroke-width:0.8;" x="90" xlink:href="#m2bd0b9b5f9" y="118.17931"/>
      </g>
     </g>
     <g id="text_13">
      <!-- 12 -->
      <g transform="translate(66.30125 122.738373)scale(0.12 -0.12)">
       <use xlink:href="#DejaVuSans-Bold-49"/>
       <use x="69.580078" xlink:href="#DejaVuSans-Bold-50"/>
      </g>
     </g>
    </g>
    <g id="ytick_7">
     <g id="line2d_25">
      <path clip-path="url(#p241ffa895e)" d="M 90 80.689655 
L 648 80.689655 
" style="fill:none;stroke:#b0b0b0;stroke-dasharray:2.96,1.28;stroke-dashoffset:0;stroke-width:0.8;"/>
     </g>
     <g id="line2d_26">
      <g>
       <use style="stroke:#000000;stroke-width:0.8;" x="90" xlink:href="#m2bd0b9b5f9" y="80.689655"/>
      </g>
     </g>
     <g id="text_14">
      <!-- 14 -->
      <g transform="translate(66.30125 85.248718)scale(0.12 -0.12)">
       <use xlink:href="#DejaVuSans-Bold-49"/>
       <use x="69.580078" xlink:href="#DejaVuSans-Bold-52"/>
      </g>
     </g>
    </g>
    <g id="ytick_8">
     <g id="line2d_27">
      <path clip-path="url(#p241ffa895e)" d="M 90 43.2 
L 648 43.2 
" style="fill:none;stroke:#b0b0b0;stroke-dasharray:2.96,1.28;stroke-dashoffset:0;stroke-width:0.8;"/>
     </g>
     <g id="line2d_28">
      <g>
       <use style="stroke:#000000;stroke-width:0.8;" x="90" xlink:href="#m2bd0b9b5f9" y="43.2"/>
      </g>
     </g>
     <g id="text_15">
      <!-- 16 -->
      <g transform="translate(66.30125 47.759063)scale(0.12 -0.12)">
       <use xlink:href="#DejaVuSans-Bold-49"/>
       <use x="69.580078" xlink:href="#DejaVuSans-Bold-54"/>
      </g>
     </g>
    </g>
    <g id="text_16">
     <!-- 4pt-Homography RMSE -->
     <g transform="translate(59.496094 263.842734)rotate(-90)scale(0.13 -0.13)">
      <defs>
       <path d="M 9.1875 72.90625 
L 27.984375 72.90625 
L 27.984375 45.125 
L 55.71875 45.125 
L 55.71875 72.90625 
L 74.515625 72.90625 
L 74.515625 0 
L 55.71875 0 
L 55.71875 30.90625 
L 27.984375 30.90625 
L 27.984375 0 
L 9.1875 0 
z
" id="DejaVuSans-Bold-72"/>
       <path d="M 45.609375 9.28125 
Q 42 4.5 37.640625 2.25 
Q 33.296875 0 27.59375 0 
Q 17.578125 0 11.03125 7.875 
Q 4.5 15.765625 4.5 27.984375 
Q 4.5 40.234375 11.03125 48.0625 
Q 17.578125 55.90625 27.59375 55.90625 
Q 33.296875 55.90625 37.640625 53.65625 
Q 42 51.421875 45.609375 46.578125 
L 45.609375 54.6875 
L 63.1875 54.6875 
L 63.1875 5.515625 
Q 63.1875 -7.671875 54.859375 -14.625 
Q 46.53125 -21.578125 30.71875 -21.578125 
Q 25.59375 -21.578125 20.796875 -20.796875 
Q 16.015625 -20.015625 11.1875 -18.40625 
L 11.1875 -4.78125 
Q 15.765625 -7.421875 20.15625 -8.71875 
Q 24.5625 -10.015625 29 -10.015625 
Q 37.59375 -10.015625 41.59375 -6.25 
Q 45.609375 -2.484375 45.609375 5.515625 
z
M 34.078125 43.3125 
Q 28.65625 43.3125 25.625 39.296875 
Q 22.609375 35.296875 22.609375 27.984375 
Q 22.609375 20.453125 25.53125 16.578125 
Q 28.46875 12.703125 34.078125 12.703125 
Q 39.546875 12.703125 42.578125 16.703125 
Q 45.609375 20.703125 45.609375 27.984375 
Q 45.609375 35.296875 42.578125 39.296875 
Q 39.546875 43.3125 34.078125 43.3125 
z
" id="DejaVuSans-Bold-103"/>
       <path d="M 63.375 33.296875 
L 63.375 0 
L 45.796875 0 
L 45.796875 5.421875 
L 45.796875 25.390625 
Q 45.796875 32.5625 45.484375 35.25 
Q 45.171875 37.9375 44.390625 39.203125 
Q 43.359375 40.921875 41.59375 41.875 
Q 39.84375 42.828125 37.59375 42.828125 
Q 32.125 42.828125 29 38.59375 
Q 25.875 34.375 25.875 26.90625 
L 25.875 0 
L 8.40625 0 
L 8.40625 75.984375 
L 25.875 75.984375 
L 25.875 46.6875 
Q 29.828125 51.46875 34.265625 53.734375 
Q 38.71875 56 44.09375 56 
Q 53.5625 56 58.46875 50.1875 
Q 63.375 44.390625 63.375 33.296875 
z
" id="DejaVuSans-Bold-104"/>
       <path d="M 1.21875 54.6875 
L 18.703125 54.6875 
L 33.40625 17.578125 
L 45.90625 54.6875 
L 63.375 54.6875 
L 40.375 -5.171875 
Q 36.921875 -14.3125 32.296875 -17.9375 
Q 27.6875 -21.578125 20.125 -21.578125 
L 10.015625 -21.578125 
L 10.015625 -10.109375 
L 15.484375 -10.109375 
Q 19.921875 -10.109375 21.9375 -8.6875 
Q 23.96875 -7.28125 25.09375 -3.609375 
L 25.59375 -2.09375 
z
" id="DejaVuSans-Bold-121"/>
       <path d="M 35.890625 40.578125 
Q 41.796875 40.578125 44.359375 42.765625 
Q 46.921875 44.96875 46.921875 50 
Q 46.921875 54.984375 44.359375 57.125 
Q 41.796875 59.28125 35.890625 59.28125 
L 27.984375 59.28125 
L 27.984375 40.578125 
z
M 27.984375 27.59375 
L 27.984375 0 
L 9.1875 0 
L 9.1875 72.90625 
L 37.890625 72.90625 
Q 52.296875 72.90625 59 68.0625 
Q 65.71875 63.234375 65.71875 52.78125 
Q 65.71875 45.5625 62.21875 40.921875 
Q 58.734375 36.28125 51.703125 34.078125 
Q 55.5625 33.203125 58.609375 30.09375 
Q 61.671875 27 64.796875 20.703125 
L 75 0 
L 54.984375 0 
L 46.09375 18.109375 
Q 43.40625 23.578125 40.640625 25.578125 
Q 37.890625 27.59375 33.296875 27.59375 
z
" id="DejaVuSans-Bold-82"/>
       <path d="M 9.1875 72.90625 
L 33.109375 72.90625 
L 49.703125 33.890625 
L 66.40625 72.90625 
L 90.28125 72.90625 
L 90.28125 0 
L 72.515625 0 
L 72.515625 53.328125 
L 55.71875 14.015625 
L 43.796875 14.015625 
L 27 53.328125 
L 27 0 
L 9.1875 0 
z
" id="DejaVuSans-Bold-77"/>
       <path d="M 59.90625 70.609375 
L 59.90625 55.171875 
Q 53.90625 57.859375 48.1875 59.21875 
Q 42.484375 60.59375 37.40625 60.59375 
Q 30.671875 60.59375 27.4375 58.734375 
Q 24.21875 56.890625 24.21875 52.984375 
Q 24.21875 50.046875 26.390625 48.40625 
Q 28.5625 46.78125 34.28125 45.609375 
L 42.28125 44 
Q 54.4375 41.546875 59.5625 36.5625 
Q 64.703125 31.59375 64.703125 22.40625 
Q 64.703125 10.359375 57.546875 4.46875 
Q 50.390625 -1.421875 35.6875 -1.421875 
Q 28.765625 -1.421875 21.78125 -0.09375 
Q 14.796875 1.21875 7.8125 3.8125 
L 7.8125 19.671875 
Q 14.796875 15.96875 21.3125 14.078125 
Q 27.828125 12.203125 33.890625 12.203125 
Q 40.046875 12.203125 43.3125 14.25 
Q 46.578125 16.3125 46.578125 20.125 
Q 46.578125 23.53125 44.359375 25.390625 
Q 42.140625 27.25 35.5 28.71875 
L 28.21875 30.328125 
Q 17.28125 32.671875 12.21875 37.796875 
Q 7.171875 42.921875 7.171875 51.609375 
Q 7.171875 62.5 14.203125 68.359375 
Q 21.234375 74.21875 34.421875 74.21875 
Q 40.4375 74.21875 46.78125 73.3125 
Q 53.125 72.40625 59.90625 70.609375 
z
" id="DejaVuSans-Bold-83"/>
       <path d="M 9.1875 72.90625 
L 59.90625 72.90625 
L 59.90625 58.6875 
L 27.984375 58.6875 
L 27.984375 45.125 
L 58.015625 45.125 
L 58.015625 30.90625 
L 27.984375 30.90625 
L 27.984375 14.203125 
L 60.984375 14.203125 
L 60.984375 0 
L 9.1875 0 
z
" id="DejaVuSans-Bold-69"/>
      </defs>
      <use xlink:href="#DejaVuSans-Bold-52"/>
      <use x="69.580078" xlink:href="#DejaVuSans-Bold-112"/>
      <use x="141.162109" xlink:href="#DejaVuSans-Bold-116"/>
      <use x="188.964844" xlink:href="#DejaVuSans-Bold-45"/>
      <use x="230.46875" xlink:href="#DejaVuSans-Bold-72"/>
      <use x="314.160156" xlink:href="#DejaVuSans-Bold-111"/>
      <use x="382.861328" xlink:href="#DejaVuSans-Bold-109"/>
      <use x="487.060547" xlink:href="#DejaVuSans-Bold-111"/>
      <use x="555.761719" xlink:href="#DejaVuSans-Bold-103"/>
      <use x="627.34375" xlink:href="#DejaVuSans-Bold-114"/>
      <use x="676.660156" xlink:href="#DejaVuSans-Bold-97"/>
      <use x="744.140625" xlink:href="#DejaVuSans-Bold-112"/>
      <use x="815.722656" xlink:href="#DejaVuSans-Bold-104"/>
      <use x="886.914062" xlink:href="#DejaVuSans-Bold-121"/>
      <use x="952.099609" xlink:href="#DejaVuSans-Bold-32"/>
      <use x="986.914062" xlink:href="#DejaVuSans-Bold-82"/>
      <use x="1063.916016" xlink:href="#DejaVuSans-Bold-77"/>
      <use x="1163.427734" xlink:href="#DejaVuSans-Bold-83"/>
      <use x="1235.449219" xlink:href="#DejaVuSans-Bold-69"/>
     </g>
    </g>
   </g>
   <g id="line2d_29">
    <path clip-path="url(#p241ffa895e)" d="M 100.730769 287.351953 
L 208.038462 269.34319 
L 315.346154 254.190197 
L 422.653846 221.608508 
L 529.961538 179.65854 
L 637.269231 86.545877 
" style="fill:none;stroke:#0000ff;stroke-linecap:square;stroke-width:1.5;"/>
    <defs>
     <path d="M 0 3 
C 0.795609 3 1.55874 2.683901 2.12132 2.12132 
C 2.683901 1.55874 3 0.795609 3 0 
C 3 -0.795609 2.683901 -1.55874 2.12132 -2.12132 
C 1.55874 -2.683901 0.795609 -3 0 -3 
C -0.795609 -3 -1.55874 -2.683901 -2.12132 -2.12132 
C -2.683901 -1.55874 -3 -0.795609 -3 0 
C -3 0.795609 -2.683901 1.55874 -2.12132 2.12132 
C -1.55874 2.683901 -0.795609 3 0 3 
z
" id="mb2192d87de" style="stroke:#0000ff;"/>
    </defs>
    <g clip-path="url(#p241ffa895e)">
     <use style="fill:#0000ff;stroke:#0000ff;" x="100.730769" xlink:href="#mb2192d87de" y="287.351953"/>
     <use style="fill:#0000ff;stroke:#0000ff;" x="208.038462" xlink:href="#mb2192d87de" y="269.34319"/>
     <use style="fill:#0000ff;stroke:#0000ff;" x="315.346154" xlink:href="#mb2192d87de" y="254.190197"/>
     <use style="fill:#0000ff;stroke:#0000ff;" x="422.653846" xlink:href="#mb2192d87de" y="221.608508"/>
     <use style="fill:#0000ff;stroke:#0000ff;" x="529.961538" xlink:href="#mb2192d87de" y="179.65854"/>
     <use style="fill:#0000ff;stroke:#0000ff;" x="637.269231" xlink:href="#mb2192d87de" y="86.545877"/>
    </g>
   </g>
   <g id="line2d_30">
    <path clip-path="url(#p241ffa895e)" d="M 100.730769 303.669269 
L 208.038462 287.33754 
L 315.346154 272.347676 
L 422.653846 236.53029 
L 529.961538 186.263392 
L 637.269231 77.980446 
" style="fill:none;stroke:#008000;stroke-linecap:square;stroke-width:1.5;"/>
    <defs>
     <path d="M 0 3 
C 0.795609 3 1.55874 2.683901 2.12132 2.12132 
C 2.683901 1.55874 3 0.795609 3 0 
C 3 -0.795609 2.683901 -1.55874 2.12132 -2.12132 
C 1.55874 -2.683901 0.795609 -3 0 -3 
C -0.795609 -3 -1.55874 -2.683901 -2.12132 -2.12132 
C -2.683901 -1.55874 -3 -0.795609 -3 0 
C -3 0.795609 -2.683901 1.55874 -2.12132 2.12132 
C -1.55874 2.683901 -0.795609 3 0 3 
z
" id="m13f034da80" style="stroke:#008000;"/>
    </defs>
    <g clip-path="url(#p241ffa895e)">
     <use style="fill:#008000;stroke:#008000;" x="100.730769" xlink:href="#m13f034da80" y="303.669269"/>
     <use style="fill:#008000;stroke:#008000;" x="208.038462" xlink:href="#m13f034da80" y="287.33754"/>
     <use style="fill:#008000;stroke:#008000;" x="315.346154" xlink:href="#m13f034da80" y="272.347676"/>
     <use style="fill:#008000;stroke:#008000;" x="422.653846" xlink:href="#m13f034da80" y="236.53029"/>
     <use style="fill:#008000;stroke:#008000;" x="529.961538" xlink:href="#m13f034da80" y="186.263392"/>
     <use style="fill:#008000;stroke:#008000;" x="637.269231" xlink:href="#m13f034da80" y="77.980446"/>
    </g>
   </g>
   <g id="line2d_31">
    <path clip-path="url(#p241ffa895e)" d="M 100.730769 305.242389 
L 208.038462 293.42515 
L 315.346154 283.365811 
L 422.653846 261.000257 
L 529.961538 230.563024 
L 637.269231 156.984852 
" style="fill:none;stroke:#ff0000;stroke-linecap:square;stroke-width:1.5;"/>
    <defs>
     <path d="M 0 3 
C 0.795609 3 1.55874 2.683901 2.12132 2.12132 
C 2.683901 1.55874 3 0.795609 3 0 
C 3 -0.795609 2.683901 -1.55874 2.12132 -2.12132 
C 1.55874 -2.683901 0.795609 -3 0 -3 
C -0.795609 -3 -1.55874 -2.683901 -2.12132 -2.12132 
C -2.683901 -1.55874 -3 -0.795609 -3 0 
C -3 0.795609 -2.683901 1.55874 -2.12132 2.12132 
C -1.55874 2.683901 -0.795609 3 0 3 
z
" id="m10df9934bc" style="stroke:#ff0000;"/>
    </defs>
    <g clip-path="url(#p241ffa895e)">
     <use style="fill:#ff0000;stroke:#ff0000;" x="100.730769" xlink:href="#m10df9934bc" y="305.242389"/>
     <use style="fill:#ff0000;stroke:#ff0000;" x="208.038462" xlink:href="#m10df9934bc" y="293.42515"/>
     <use style="fill:#ff0000;stroke:#ff0000;" x="315.346154" xlink:href="#m10df9934bc" y="283.365811"/>
     <use style="fill:#ff0000;stroke:#ff0000;" x="422.653846" xlink:href="#m10df9934bc" y="261.000257"/>
     <use style="fill:#ff0000;stroke:#ff0000;" x="529.961538" xlink:href="#m10df9934bc" y="230.563024"/>
     <use style="fill:#ff0000;stroke:#ff0000;" x="637.269231" xlink:href="#m10df9934bc" y="156.984852"/>
    </g>
   </g>
   <g id="patch_3">
    <path d="M 90 315 
L 90 43.2 
" style="fill:none;stroke:#000000;stroke-linecap:square;stroke-linejoin:miter;stroke-width:0.8;"/>
   </g>
   <g id="patch_4">
    <path d="M 90 315 
L 648 315 
" style="fill:none;stroke:#000000;stroke-linecap:square;stroke-linejoin:miter;stroke-width:0.8;"/>
   </g>
   <g id="legend_1">
    <g id="patch_5">
     <path d="M 97 101.3225 
L 353.844375 101.3225 
Q 355.844375 101.3225 355.844375 99.3225 
L 355.844375 50.2 
Q 355.844375 48.2 353.844375 48.2 
L 97 48.2 
Q 95 48.2 95 50.2 
L 95 99.3225 
Q 95 101.3225 97 101.3225 
z
" style="fill:#ffffff;opacity:0.8;stroke:#cccccc;stroke-linejoin:miter;"/>
    </g>
    <g id="line2d_32">
     <path d="M 99 57.818125 
L 119 57.818125 
" style="fill:none;stroke:#0000ff;stroke-linecap:square;stroke-width:1.5;"/>
    </g>
    <g id="line2d_33">
     <g>
      <use style="fill:#0000ff;stroke:#0000ff;" x="109" xlink:href="#mb2192d87de" y="57.818125"/>
     </g>
    </g>
    <g id="text_17">
     <!-- VGG-style Supervised Network -->
     <g transform="translate(127 61.318125)scale(0.12 -0.12)">
      <defs>
       <path d="M 0.484375 72.90625 
L 19.390625 72.90625 
L 38.71875 19.09375 
L 58.015625 72.90625 
L 76.90625 72.90625 
L 49.90625 0 
L 27.484375 0 
z
" id="DejaVuSans-Bold-86"/>
       <path d="M 74.703125 5.421875 
Q 67.671875 2 60.109375 0.28125 
Q 52.546875 -1.421875 44.484375 -1.421875 
Q 26.265625 -1.421875 15.625 8.765625 
Q 4.984375 18.953125 4.984375 36.375 
Q 4.984375 54 15.8125 64.109375 
Q 26.65625 74.21875 45.515625 74.21875 
Q 52.78125 74.21875 59.4375 72.84375 
Q 66.109375 71.484375 72.015625 68.796875 
L 72.015625 53.71875 
Q 65.921875 57.171875 59.890625 58.875 
Q 53.859375 60.59375 47.796875 60.59375 
Q 36.578125 60.59375 30.5 54.3125 
Q 24.421875 48.046875 24.421875 36.375 
Q 24.421875 24.8125 30.28125 18.5 
Q 36.140625 12.203125 46.921875 12.203125 
Q 49.859375 12.203125 52.375 12.5625 
Q 54.890625 12.9375 56.890625 13.71875 
L 56.890625 27.875 
L 45.40625 27.875 
L 45.40625 40.484375 
L 74.703125 40.484375 
z
" id="DejaVuSans-Bold-71"/>
       <path d="M 51.125 52.984375 
L 51.125 39.703125 
Q 45.515625 42.046875 40.28125 43.21875 
Q 35.0625 44.390625 30.421875 44.390625 
Q 25.4375 44.390625 23.015625 43.140625 
Q 20.609375 41.890625 20.609375 39.3125 
Q 20.609375 37.203125 22.4375 36.078125 
Q 24.265625 34.96875 29 34.421875 
L 32.078125 33.984375 
Q 45.515625 32.28125 50.140625 28.375 
Q 54.78125 24.46875 54.78125 16.109375 
Q 54.78125 7.375 48.328125 2.96875 
Q 41.890625 -1.421875 29.109375 -1.421875 
Q 23.6875 -1.421875 17.890625 -0.5625 
Q 12.109375 0.296875 6 2 
L 6 15.28125 
Q 11.234375 12.75 16.71875 11.46875 
Q 22.21875 10.203125 27.875 10.203125 
Q 33.015625 10.203125 35.59375 11.609375 
Q 38.1875 13.03125 38.1875 15.828125 
Q 38.1875 18.171875 36.40625 19.3125 
Q 34.625 20.453125 29.296875 21.09375 
L 26.21875 21.484375 
Q 14.546875 22.953125 9.859375 26.90625 
Q 5.171875 30.859375 5.171875 38.921875 
Q 5.171875 47.609375 11.125 51.796875 
Q 17.09375 56 29.390625 56 
Q 34.234375 56 39.546875 55.265625 
Q 44.875 54.546875 51.125 52.984375 
z
" id="DejaVuSans-Bold-115"/>
       <path d="M 7.8125 21.296875 
L 7.8125 54.6875 
L 25.390625 54.6875 
L 25.390625 49.21875 
Q 25.390625 44.78125 25.34375 38.0625 
Q 25.296875 31.34375 25.296875 29.109375 
Q 25.296875 22.515625 25.640625 19.609375 
Q 25.984375 16.703125 26.8125 15.375 
Q 27.875 13.671875 29.609375 12.734375 
Q 31.34375 11.8125 33.59375 11.8125 
Q 39.0625 11.8125 42.1875 16.015625 
Q 45.3125 20.21875 45.3125 27.6875 
L 45.3125 54.6875 
L 62.796875 54.6875 
L 62.796875 0 
L 45.3125 0 
L 45.3125 7.90625 
Q 41.359375 3.125 36.9375 0.84375 
Q 32.515625 -1.421875 27.203125 -1.421875 
Q 17.71875 -1.421875 12.765625 4.390625 
Q 7.8125 10.203125 7.8125 21.296875 
z
" id="DejaVuSans-Bold-117"/>
       <path d="M 1.515625 54.6875 
L 19 54.6875 
L 32.625 16.890625 
L 46.1875 54.6875 
L 63.71875 54.6875 
L 42.1875 0 
L 23 0 
z
" id="DejaVuSans-Bold-118"/>
       <path d="M 45.609375 46.6875 
L 45.609375 75.984375 
L 63.1875 75.984375 
L 63.1875 0 
L 45.609375 0 
L 45.609375 7.90625 
Q 42 3.078125 37.640625 0.828125 
Q 33.296875 -1.421875 27.59375 -1.421875 
Q 17.484375 -1.421875 10.984375 6.609375 
Q 4.5 14.65625 4.5 27.296875 
Q 4.5 39.9375 10.984375 47.96875 
Q 17.484375 56 27.59375 56 
Q 33.25 56 37.625 53.734375 
Q 42 51.46875 45.609375 46.6875 
z
M 34.078125 11.28125 
Q 39.703125 11.28125 42.65625 15.375 
Q 45.609375 19.484375 45.609375 27.296875 
Q 45.609375 35.109375 42.65625 39.203125 
Q 39.703125 43.3125 34.078125 43.3125 
Q 28.515625 43.3125 25.5625 39.203125 
Q 22.609375 35.109375 22.609375 27.296875 
Q 22.609375 19.484375 25.5625 15.375 
Q 28.515625 11.28125 34.078125 11.28125 
z
" id="DejaVuSans-Bold-100"/>
       <path d="M 9.1875 72.90625 
L 30.171875 72.90625 
L 56.6875 22.90625 
L 56.6875 72.90625 
L 74.515625 72.90625 
L 74.515625 0 
L 53.515625 0 
L 27 50 
L 27 0 
L 9.1875 0 
z
" id="DejaVuSans-Bold-78"/>
       <path d="M 3.515625 54.6875 
L 20.515625 54.6875 
L 29.6875 17 
L 38.921875 54.6875 
L 53.515625 54.6875 
L 62.703125 17.390625 
L 71.921875 54.6875 
L 88.921875 54.6875 
L 74.515625 0 
L 55.421875 0 
L 46.1875 37.59375 
L 37.015625 0 
L 17.921875 0 
z
" id="DejaVuSans-Bold-119"/>
       <path d="M 8.40625 75.984375 
L 25.875 75.984375 
L 25.875 34.625 
L 46 54.6875 
L 66.3125 54.6875 
L 39.59375 29.59375 
L 68.40625 0 
L 47.21875 0 
L 25.875 22.796875 
L 25.875 0 
L 8.40625 0 
z
" id="DejaVuSans-Bold-107"/>
      </defs>
      <use xlink:href="#DejaVuSans-Bold-86"/>
      <use x="77.392578" xlink:href="#DejaVuSans-Bold-71"/>
      <use x="159.472656" xlink:href="#DejaVuSans-Bold-71"/>
      <use x="241.552734" xlink:href="#DejaVuSans-Bold-45"/>
      <use x="283.056641" xlink:href="#DejaVuSans-Bold-115"/>
      <use x="342.578125" xlink:href="#DejaVuSans-Bold-116"/>
      <use x="390.380859" xlink:href="#DejaVuSans-Bold-121"/>
      <use x="455.566406" xlink:href="#DejaVuSans-Bold-108"/>
      <use x="489.84375" xlink:href="#DejaVuSans-Bold-101"/>
      <use x="557.666016" xlink:href="#DejaVuSans-Bold-32"/>
      <use x="592.480469" xlink:href="#DejaVuSans-Bold-83"/>
      <use x="664.501953" xlink:href="#DejaVuSans-Bold-117"/>
      <use x="735.693359" xlink:href="#DejaVuSans-Bold-112"/>
      <use x="807.275391" xlink:href="#DejaVuSans-Bold-101"/>
      <use x="875.097656" xlink:href="#DejaVuSans-Bold-114"/>
      <use x="924.414062" xlink:href="#DejaVuSans-Bold-118"/>
      <use x="989.599609" xlink:href="#DejaVuSans-Bold-105"/>
      <use x="1023.876953" xlink:href="#DejaVuSans-Bold-115"/>
      <use x="1083.398438" xlink:href="#DejaVuSans-Bold-101"/>
      <use x="1151.220703" xlink:href="#DejaVuSans-Bold-100"/>
      <use x="1222.802734" xlink:href="#DejaVuSans-Bold-32"/>
      <use x="1257.617188" xlink:href="#DejaVuSans-Bold-78"/>
      <use x="1341.308594" xlink:href="#DejaVuSans-Bold-101"/>
      <use x="1409.130859" xlink:href="#DejaVuSans-Bold-116"/>
      <use x="1456.933594" xlink:href="#DejaVuSans-Bold-119"/>
      <use x="1549.316406" xlink:href="#DejaVuSans-Bold-111"/>
      <use x="1618.017578" xlink:href="#DejaVuSans-Bold-114"/>
      <use x="1667.333984" xlink:href="#DejaVuSans-Bold-107"/>
     </g>
    </g>
    <g id="line2d_34">
     <path d="M 99 74.525625 
L 119 74.525625 
" style="fill:none;stroke:#008000;stroke-linecap:square;stroke-width:1.5;"/>
    </g>
    <g id="line2d_35">
     <g>
      <use style="fill:#008000;stroke:#008000;" x="109" xlink:href="#m13f034da80" y="74.525625"/>
     </g>
    </g>
    <g id="text_18">
     <!-- VGG-style Unsupervised Network -->
     <g transform="translate(127 78.025625)scale(0.12 -0.12)">
      <defs>
       <path d="M 9.1875 72.90625 
L 27.984375 72.90625 
L 27.984375 29.203125 
Q 27.984375 20.171875 30.9375 16.28125 
Q 33.890625 12.40625 40.578125 12.40625 
Q 47.3125 12.40625 50.265625 16.28125 
Q 53.21875 20.171875 53.21875 29.203125 
L 53.21875 72.90625 
L 72.015625 72.90625 
L 72.015625 29.203125 
Q 72.015625 13.71875 64.25 6.140625 
Q 56.5 -1.421875 40.578125 -1.421875 
Q 24.703125 -1.421875 16.9375 6.140625 
Q 9.1875 13.71875 9.1875 29.203125 
z
" id="DejaVuSans-Bold-85"/>
      </defs>
      <use xlink:href="#DejaVuSans-Bold-86"/>
      <use x="77.392578" xlink:href="#DejaVuSans-Bold-71"/>
      <use x="159.472656" xlink:href="#DejaVuSans-Bold-71"/>
      <use x="241.552734" xlink:href="#DejaVuSans-Bold-45"/>
      <use x="283.056641" xlink:href="#DejaVuSans-Bold-115"/>
      <use x="342.578125" xlink:href="#DejaVuSans-Bold-116"/>
      <use x="390.380859" xlink:href="#DejaVuSans-Bold-121"/>
      <use x="455.566406" xlink:href="#DejaVuSans-Bold-108"/>
      <use x="489.84375" xlink:href="#DejaVuSans-Bold-101"/>
      <use x="557.666016" xlink:href="#DejaVuSans-Bold-32"/>
      <use x="592.480469" xlink:href="#DejaVuSans-Bold-85"/>
      <use x="673.681641" xlink:href="#DejaVuSans-Bold-110"/>
      <use x="744.873047" xlink:href="#DejaVuSans-Bold-115"/>
      <use x="804.394531" xlink:href="#DejaVuSans-Bold-117"/>
      <use x="875.585938" xlink:href="#DejaVuSans-Bold-112"/>
      <use x="947.167969" xlink:href="#DejaVuSans-Bold-101"/>
      <use x="1014.990234" xlink:href="#DejaVuSans-Bold-114"/>
      <use x="1064.306641" xlink:href="#DejaVuSans-Bold-118"/>
      <use x="1129.492188" xlink:href="#DejaVuSans-Bold-105"/>
      <use x="1163.769531" xlink:href="#DejaVuSans-Bold-115"/>
      <use x="1223.291016" xlink:href="#DejaVuSans-Bold-101"/>
      <use x="1291.113281" xlink:href="#DejaVuSans-Bold-100"/>
      <use x="1362.695312" xlink:href="#DejaVuSans-Bold-32"/>
      <use x="1397.509766" xlink:href="#DejaVuSans-Bold-78"/>
      <use x="1481.201172" xlink:href="#DejaVuSans-Bold-101"/>
      <use x="1549.023438" xlink:href="#DejaVuSans-Bold-116"/>
      <use x="1596.826172" xlink:href="#DejaVuSans-Bold-119"/>
      <use x="1689.208984" xlink:href="#DejaVuSans-Bold-111"/>
      <use x="1757.910156" xlink:href="#DejaVuSans-Bold-114"/>
      <use x="1807.226562" xlink:href="#DejaVuSans-Bold-107"/>
     </g>
    </g>
    <g id="line2d_36">
     <path d="M 99 91.233125 
L 119 91.233125 
" style="fill:none;stroke:#ff0000;stroke-linecap:square;stroke-width:1.5;"/>
    </g>
    <g id="line2d_37">
     <g>
      <use style="fill:#ff0000;stroke:#ff0000;" x="109" xlink:href="#m10df9934bc" y="91.233125"/>
     </g>
    </g>
    <g id="text_19">
     <!-- ShuffleNet-style Network -->
     <g transform="translate(127 94.733125)scale(0.12 -0.12)">
      <use xlink:href="#DejaVuSans-Bold-83"/>
      <use x="72.021484" xlink:href="#DejaVuSans-Bold-104"/>
      <use x="143.212891" xlink:href="#DejaVuSans-Bold-117"/>
      <use x="214.404297" xlink:href="#DejaVuSans-Bold-102"/>
      <use x="257.910156" xlink:href="#DejaVuSans-Bold-102"/>
      <use x="301.416016" xlink:href="#DejaVuSans-Bold-108"/>
      <use x="335.693359" xlink:href="#DejaVuSans-Bold-101"/>
      <use x="403.515625" xlink:href="#DejaVuSans-Bold-78"/>
      <use x="487.207031" xlink:href="#DejaVuSans-Bold-101"/>
      <use x="555.029297" xlink:href="#DejaVuSans-Bold-116"/>
      <use x="602.832031" xlink:href="#DejaVuSans-Bold-45"/>
      <use x="644.335938" xlink:href="#DejaVuSans-Bold-115"/>
      <use x="703.857422" xlink:href="#DejaVuSans-Bold-116"/>
      <use x="751.660156" xlink:href="#DejaVuSans-Bold-121"/>
      <use x="816.845703" xlink:href="#DejaVuSans-Bold-108"/>
      <use x="851.123047" xlink:href="#DejaVuSans-Bold-101"/>
      <use x="918.945312" xlink:href="#DejaVuSans-Bold-32"/>
      <use x="953.759766" xlink:href="#DejaVuSans-Bold-78"/>
      <use x="1037.451172" xlink:href="#DejaVuSans-Bold-101"/>
      <use x="1105.273438" xlink:href="#DejaVuSans-Bold-116"/>
      <use x="1153.076172" xlink:href="#DejaVuSans-Bold-119"/>
      <use x="1245.458984" xlink:href="#DejaVuSans-Bold-111"/>
      <use x="1314.160156" xlink:href="#DejaVuSans-Bold-114"/>
      <use x="1363.476562" xlink:href="#DejaVuSans-Bold-107"/>
     </g>
    </g>
   </g>
  </g>
 </g>
 <defs>
  <clipPath id="p241ffa895e">
   <rect height="271.8" width="558" x="90" y="43.2"/>
  </clipPath>
 </defs>
</svg>
